<?xml version="1.0" encoding="UTF-8" standalone="no"?>
<!-- Created with Inkscape (http://www.inkscape.org/) -->

<svg
   xmlns:dc="http://purl.org/dc/elements/1.1/"
   xmlns:cc="http://creativecommons.org/ns#"
   xmlns:rdf="http://www.w3.org/1999/02/22-rdf-syntax-ns#"
   xmlns:svg="http://www.w3.org/2000/svg"
   xmlns="http://www.w3.org/2000/svg"
   xmlns:sodipodi="http://sodipodi.sourceforge.net/DTD/sodipodi-0.dtd"
   xmlns:inkscape="http://www.inkscape.org/namespaces/inkscape"
   width="210mm"
   height="297mm"
   viewBox="0 0 744.09448819 1052.3622047"
   id="svg3392"
   version="1.1"
   inkscape:version="0.91 r13725"
   sodipodi:docname="wolf-logo-left-white-sm.svg">
  <defs
     id="defs3394">
    <filter
       style="color-interpolation-filters:sRGB;"
       inkscape:label="Brilliance"
       id="filter4157">
      <feColorMatrix
         values="2 -0.5 -0.5 0 0 -0.5 2 -0.5 0 0 -0.5 -0.5 2 0 0 0 0 0 1 0 "
         id="feColorMatrix4159"
         result="fbSourceGraphic" />
      <feColorMatrix
         result="fbSourceGraphicAlpha"
         in="fbSourceGraphic"
         values="0 0 0 -1 0 0 0 0 -1 0 0 0 0 -1 0 0 0 0 1 0"
         id="feColorMatrix4161" />
      <feColorMatrix
         id="feColorMatrix4163"
         values="2 -0.5 -0.5 0 0 -0.5 2 -0.5 0 0 -0.5 -0.5 2 0 0 0 0 0 1 0 "
         in="fbSourceGraphic"
         result="fbSourceGraphic" />
      <feColorMatrix
         result="fbSourceGraphicAlpha"
         in="fbSourceGraphic"
         values="0 0 0 -1 0 0 0 0 -1 0 0 0 0 -1 0 0 0 0 1 0"
         id="feColorMatrix4165" />
      <feColorMatrix
         id="feColorMatrix4167"
         values="2 -0.5 -0.5 0 6.6 -0.5 2 -0.5 0 6.6 -0.5 -0.5 2 0 6.6 0 0 0 1 0 "
         in="fbSourceGraphic" />
    </filter>
  </defs>
  <sodipodi:namedview
     id="base"
     pagecolor="#ffffff"
     bordercolor="#666666"
     borderopacity="1.0"
     inkscape:pageopacity="0.0"
     inkscape:pageshadow="2"
     inkscape:zoom="1"
     inkscape:cx="422.60749"
     inkscape:cy="593.47985"
     inkscape:document-units="px"
     inkscape:current-layer="layer1"
     showgrid="false"
     inkscape:window-width="1916"
     inkscape:window-height="1155"
     inkscape:window-x="4"
     inkscape:window-y="1"
     inkscape:window-maximized="1"
     inkscape:snap-text-baseline="true" />
  <metadata
     id="metadata3397">
    <rdf:RDF>
      <cc:Work
         rdf:about="">
        <dc:format>image/svg+xml</dc:format>
        <dc:type
           rdf:resource="http://purl.org/dc/dcmitype/StillImage" />
        <dc:title></dc:title>
      </cc:Work>
    </rdf:RDF>
  </metadata>
  <g
     inkscape:label="Layer 1"
     inkscape:groupmode="layer"
     id="layer1"
     style="opacity:1">
    <g
       id="g3433"
       transform="matrix(-0.28217539,0,0,0.35716374,746.06773,8.1304758)"
       style="fill:#ffffff">
      <path
         inkscape:connector-curvature="0"
         id="path3347"
         d=""
         style="fill:#ffffff" />
      <path
         inkscape:connector-curvature="0"
         id="path3349"
         d="m 180.05375,207.79331 c 0,0.13898 0.45006,0.2527 1.00016,0.2527 0.94464,0 3.35769,-3.40968 11.12691,-15.72249 2.24299,-3.55473 2.35109,-3.89679 1.18927,-3.76333 -0.97911,0.11247 -2.68569,2.3491 -7.29717,9.5636 -3.31055,5.17925 -6.01917,9.53053 -6.01917,9.66952 z"
         style="fill:#ffffff;fill-opacity:1" />
      <path
         inkscape:connector-curvature="0"
         id="path3351"
         d="m 137.41167,178.92098 c 0,0.59127 1.52041,0.699 9.86496,0.699 8.34455,0 9.86495,-0.10773 9.86495,-0.699 0,-0.59127 -1.5204,-0.699 -9.86495,-0.699 -8.34455,0 -9.86496,0.10773 -9.86496,0.699 z"
         style="fill:#ffffff;fill-opacity:1" />
      <path
         inkscape:connector-curvature="0"
         id="path3353"
         d="m 189.36447,234.49154 c 2.07733,3.26787 3.03903,4.3105 3.97591,4.3105 1.06479,0 0.38563,-1.32999 -4.90799,-9.61132 -5.59871,-8.7586 -7.11092,-10.57824 -8.15543,-9.81347 -0.19709,0.14431 1.15045,2.63419 2.99453,5.53308 1.84408,2.89889 4.58592,7.21043 6.09298,9.58121 z"
         style="fill:#ffffff;fill-opacity:1" />
      <path
         transform="matrix(0.63005225,0,0,0.46131696,13.665694,2.6002002)"
         inkscape:connector-curvature="0"
         id="path3355"
         d="m 299.69399,516.31629 c -4.30577,0.18935 -0.78287,0.34428 7.82869,0.34428 8.61155,0 12.13445,-0.15493 7.82868,-0.34428 -4.30578,-0.18936 -11.35159,-0.18936 -15.65737,0 z"
         style="fill:#ffffff;fill-opacity:1;filter:url(#filter4157)" />
      <path
         inkscape:connector-curvature="0"
         id="path4169"
         d="m 126.59204,169.36797 c 0,11.80534 0.0326,12.11601 1.2729,12.11601 1.24026,0 1.27289,-0.31067 1.27289,-12.11601 0,-11.80535 -0.0326,-12.11602 -1.27289,-12.11602 -1.24027,0 -1.2729,0.31067 -1.2729,12.11602 z"
         style="fill:#ffffff;fill-opacity:1" />
      <path
         inkscape:connector-curvature="0"
         id="path4171"
         d="m 119.5911,147.22121 c 0,0.13461 0.50121,0.23824 1.11379,0.23026 0.78354,-0.0102 1.95133,-1.35736 3.93852,-4.54351 1.55361,-2.49096 4.34448,-6.90259 6.20195,-9.80361 2.98462,-4.66144 3.22769,-5.25732 2.09096,-5.12601 -0.98922,0.11427 -2.67857,2.32496 -7.31573,9.57336 -3.31622,5.18363 -6.02949,9.53491 -6.02949,9.66951 z"
         style="fill:#ffffff;fill-opacity:1" />
      <path
         inkscape:connector-curvature="0"
         id="path4173"
         d="m 119.69717,116.32129 c -0.11667,0.21374 0.32684,0.38862 0.9856,0.38862 0.93387,0 2.52298,-2.06716 7.21309,-9.38294 3.30844,-5.16061 6.11081,-9.564314 6.22749,-9.786004 0.11668,-0.221695 -0.32617,-0.403076 -0.98411,-0.403076 -0.93226,0 -2.52411,2.073901 -7.21309,9.3974 -3.30925,5.16856 -6.11229,9.57227 -6.22898,9.786 z"
         style="fill:#ffffff;fill-opacity:1" />
      <path
         inkscape:connector-curvature="0"
         id="path4175"
         d="m 148.17828,85.550143 c 1.80781,1.071833 5.78106,1.189178 5.78106,0.170734 0,-0.464159 -0.63396,-0.699002 -1.88696,-0.699002 -2.42661,0 -3.20463,-1.067344 -3.20463,-4.396369 0,-2.874161 -1.37355,-4.426521 -3.9778,-4.495654 -1.17487,-0.03118 -1.03202,-0.16529 0.79556,-0.746807 2.93993,-0.935463 3.16103,-1.26453 3.17249,-4.721321 0.0122,-3.679344 0.73455,-4.745872 3.21438,-4.745872 1.32068,0 1.88696,-0.228186 1.88696,-0.760357 0,-0.622302 -0.47813,-0.713403 -2.63336,-0.501742 -3.90889,0.383881 -4.62403,1.164475 -4.89924,5.347596 -0.26697,4.058131 -1.17089,5.234517 -4.02212,5.234517 -1.18522,0 -1.8107,0.241463 -1.8107,0.698997 0,0.457539 0.62548,0.699001 1.8107,0.699001 2.73757,0 3.74096,1.201297 4.04159,4.838772 0.21912,2.651161 0.51967,3.358688 1.73207,4.077507 z"
         style="fill:#ffffff;fill-opacity:1" />
      <path
         inkscape:connector-curvature="0"
         id="path4177"
         d="m 142.37437,58.112643 c -2.90451,0.08654 -0.69849,0.15796 4.90226,0.158421 5.60075,4.61e-4 7.97717,-0.07022 5.28092,-0.157351 -2.69624,-0.08698 -7.27867,-0.08746 -10.18318,-9.22e-4 z"
         style="fill:#ffffff;fill-opacity:1" />
      <path
         inkscape:connector-curvature="0"
         id="path4179"
         d="m 137.41167,57.061846 c 0,0.89191 0.4243,0.931999 9.86496,0.931999 9.44066,0 9.86495,-0.04009 9.86495,-0.931999 0,-0.891915 -0.42429,-0.932003 -9.86495,-0.932003 -9.44066,0 -9.86496,0.04009 -9.86496,0.932003 z"
         style="fill:#ffffff;fill-opacity:1" />
      <path
         inkscape:connector-curvature="0"
         id="path4181"
         d=""
         style="fill:#ffffff;fill-opacity:1" />
      <path
         inkscape:connector-curvature="0"
         id="path4183"
         d="m 161.84113,52.285338 c -1.90077,3.02683 -1.99982,3.378506 -0.95158,3.378506 0.8975,0 2.54147,-2.14374 7.05793,-9.20351 7.2321,-11.304678 6.75096,-10.369658 5.33253,-10.362738 -1.15729,0.0057 -2.23211,1.526687 -11.43888,16.187742 z"
         style="fill:#ffffff;fill-opacity:1" />
      <path
         inkscape:connector-curvature="0"
         id="path4185"
         d=""
         style="fill:#ffffff;fill-opacity:1" />
      <path
         inkscape:connector-curvature="0"
         id="path4187"
         d="m 180.05375,25.019854 c 0,0.232273 0.47178,0.354494 1.0484,0.271623 0.66642,-0.09577 3.31714,-3.684008 7.27525,-9.848374 5.36164,-8.350245 6.04464,-9.6776043 4.91551,-9.5530123 -1.02254,0.1128317 -2.62474,2.1886968 -7.27525,9.4260803 -3.28015,5.104763 -5.96391,9.471419 -5.96391,9.703683 z"
         style="fill:#ffffff;fill-opacity:1" />
      <path
         inkscape:connector-curvature="0"
         id="path4189"
         d="m 230.05229,21.995307 c 1.57777,2.516941 2.43587,3.378501 3.36493,3.378501 1.07907,0 0.41061,-1.302731 -4.96165,-9.669508 -3.94583,-6.1452561 -6.59085,-9.7244259 -7.25714,-9.820181 -0.57663,-0.082868 -1.0484,0.0454 -1.0484,0.2850399 0,0.2396398 1.75149,3.1383943 3.8922,6.4416741 2.14072,3.303283 4.84524,7.526294 6.01006,9.384474 z"
         style="fill:#ffffff;fill-opacity:1" />
      <path
         inkscape:connector-curvature="0"
         id="path4191"
         d="m 206.7846,47.508834 c 0,11.572344 0.0333,11.883013 1.2729,11.883013 1.23963,0 1.27289,-0.310669 1.27289,-11.883013 0,-11.572348 -0.0333,-11.883013 -1.27289,-11.883013 -1.23964,0 -1.2729,0.310665 -1.2729,11.883013 z"
         style="fill:#ffffff;fill-opacity:1" />
      <path
         inkscape:connector-curvature="0"
         id="path4193"
         d="m 206.7846,77.798865 c 0,11.572348 0.0333,11.883013 1.2729,11.883013 1.23963,0 1.27289,-0.310665 1.27289,-11.883013 0,-11.572344 -0.0333,-11.883013 -1.27289,-11.883013 -1.23964,0 -1.2729,0.310669 -1.2729,11.883013 z"
         style="fill:#ffffff;fill-opacity:1" />
      <path
         inkscape:connector-curvature="0"
         id="path4195"
         d="m 246.27329,46.460334 c 4.44474,6.931865 6.18298,9.20351 7.04242,9.20351 1.3608,0 1.76751,0.77754 -5.79838,-11.085051 -4.16125,-6.524429 -5.68259,-8.482673 -6.59169,-8.484518 -1.41826,-0.003 -1.90101,-0.938711 5.34765,10.366059 z"
         style="fill:#ffffff;fill-opacity:1" />
      <path
         inkscape:connector-curvature="0"
         id="path4197"
         d="m 263.58766,46.930269 c -2.36281,0.08966 -0.4296,0.16302 4.29603,0.16302 4.72563,0 6.65885,-0.07336 4.29603,-0.16302 -2.36281,-0.08966 -6.22924,-0.08966 -8.59206,0 z"
         style="fill:#ffffff;fill-opacity:1" />
      <path
         inkscape:connector-curvature="0"
         id="path4199"
         d="m 266.13346,46.94206 c -0.96263,0.106772 -0.17502,0.194131 1.75023,0.194131 1.92526,0 2.71286,-0.08736 1.75024,-0.194131 -0.96263,-0.106772 -2.53785,-0.106772 -3.50047,0 z"
         style="fill:#ffffff;fill-opacity:1" />
      <path
         inkscape:connector-curvature="0"
         id="path4201"
         d="m 260.41753,46.952887 c -0.61925,0.118148 -0.26669,0.222581 0.78345,0.232084 1.05014,0.0095 1.55679,-0.08717 1.1259,-0.214817 -0.4309,-0.127637 -1.2901,-0.135406 -1.90935,-0.01725 z"
         style="fill:#ffffff;fill-opacity:1" />
      <path
         inkscape:connector-curvature="0"
         id="path4203"
         d="m 259.60985,46.110831 c 0,0.58549 1.34362,0.699002 8.27384,0.699002 6.93023,0 8.27384,-0.113512 8.27384,-0.699002 0,-0.585485 -1.34361,-0.699001 -8.27384,-0.699001 -6.93022,0 -8.27384,0.113516 -8.27384,0.699001 z"
         style="fill:#ffffff;fill-opacity:1" />
      <path
         inkscape:connector-curvature="0"
         id="path4205"
         d="m 289.74092,39.120823 c -0.003,2.050402 0.1077,2.947174 0.24446,1.99282 0.13697,-0.954349 0.13886,-2.631952 0.004,-3.728004 -0.13445,-1.096047 -0.24614,-0.315218 -0.24866,1.735184 z"
         style="fill:#ffffff;fill-opacity:1" />
      <path
         inkscape:connector-curvature="0"
         id="path4207"
         d="m 286.34071,39.120823 c 0,3.417339 0.0353,3.495007 1.59112,3.495007 1.55578,0 1.59112,-0.07767 1.59112,-3.495007 0,-3.417335 -0.0353,-3.495002 -1.59112,-3.495002 -1.55578,0 -1.59112,0.07767 -1.59112,3.495002 z"
         style="fill:#ffffff;fill-opacity:1" />
      <path
         inkscape:connector-curvature="0"
         id="path4209"
         d="m 306.70707,39.120823 c 0,3.417339 0.0353,3.495007 1.59112,3.495007 1.55579,0 1.59113,-0.07767 1.59113,-3.495007 0,-3.417335 -0.0353,-3.495002 -1.59113,-3.495002 -1.55577,0 -1.59112,0.07767 -1.59112,3.495002 z"
         style="fill:#ffffff;fill-opacity:1" />
      <path
         inkscape:connector-curvature="0"
         id="path4211"
         d="m 358.25943,26.538809 c 0,0.59127 1.52041,0.699001 9.86496,0.699001 8.34456,0 9.86496,-0.107731 9.86496,-0.699001 0,-0.591266 -1.5204,-0.698997 -9.86496,-0.698997 -8.34455,0 -9.86496,0.107731 -9.86496,0.698997 z"
         style="fill:#ffffff;fill-opacity:1" />
      <path
         inkscape:connector-curvature="0"
         id="path4213"
         d="m 379.8987,15.820801 c 0,0.585485 1.34361,0.698997 8.27383,0.698997 6.93022,0 8.27384,-0.113512 8.27384,-0.698997 0,-0.585489 -1.34362,-0.699001 -8.27384,-0.699001 -6.93022,0 -8.27383,0.113512 -8.27383,0.699001 z"
         style="fill:#ffffff;fill-opacity:1" />
      <path
         inkscape:connector-curvature="0"
         id="path4215"
         d="m 406.62955,8.3647911 c 0,3.4173369 0.0353,3.4950039 1.59112,3.4950039 1.55578,0 1.59113,-0.07767 1.59113,-3.4950039 0,-3.417337 -0.0353,-3.4950039 -1.59113,-3.4950039 -1.55578,0 -1.59112,0.077667 -1.59112,3.4950039 z"
         style="fill:#ffffff;fill-opacity:1" />
      <path
         inkscape:connector-curvature="0"
         id="path4217"
         d="m 424.81839,24.791308 c -0.87537,2.407613 -0.86724,2.446502 0.51142,2.446502 1.06639,0 1.81256,-0.614516 3.12464,-2.573323 0.94804,-1.415329 1.72371,-3.197784 1.72371,-3.961006 0,-1.27525 -0.18048,-1.387678 -2.22758,-1.387678 -2.0873,0 -2.22806,0.09536 -2.23512,1.514504 -0.004,0.832972 -0.40783,2.615427 -0.89707,3.961001 z"
         style="fill:#ffffff;fill-opacity:1" />
      <path
         inkscape:connector-curvature="0"
         id="path4219"
         d=""
         style="fill:#ffffff;fill-opacity:1" />
      <path
         inkscape:connector-curvature="0"
         id="path4221"
         d="m 401.17319,54.839207 c -0.30252,0.697894 -0.13112,0.873126 0.73456,0.750969 0.7726,-0.109019 3.09267,-3.221865 7.34743,-9.858072 5.39078,-8.40806 6.0419,-9.679343 4.89279,-9.553012 -1.03944,0.114282 -2.53991,2.045277 -6.95284,8.947769 -3.09503,4.84112 -5.80491,9.211674 -6.02194,9.712346 z"
         style="fill:#ffffff;fill-opacity:1" />
      <path
         inkscape:connector-curvature="0"
         id="path4223"
         d="m 363.22214,58.112643 c -2.90451,0.08654 -0.6985,0.15796 4.90225,0.158421 5.60075,4.61e-4 7.97717,-0.07022 5.28093,-0.157351 -2.69625,-0.08698 -7.27868,-0.08746 -10.18318,-9.22e-4 z"
         style="fill:#ffffff;fill-opacity:1" />
      <path
         inkscape:connector-curvature="0"
         id="path4225"
         d="m 358.25943,57.061846 c 0,0.89191 0.4243,0.931999 9.86496,0.931999 9.44066,0 9.86496,-0.04009 9.86496,-0.931999 0,-0.891915 -0.4243,-0.932003 -9.86496,-0.932003 -9.44066,0 -9.86496,0.04009 -9.86496,0.932003 z"
         style="fill:#ffffff;fill-opacity:1" />
      <path
         inkscape:connector-curvature="0"
         id="path4227"
         d="m 320.0725,46.110831 c 0,0.58549 1.34361,0.699002 8.27384,0.699002 6.93022,0 8.27383,-0.113512 8.27383,-0.699002 0,-0.585485 -1.34361,-0.699001 -8.27383,-0.699001 -6.93023,0 -8.27384,0.113516 -8.27384,0.699001 z"
         style="fill:#ffffff;fill-opacity:1" />
      <path
         inkscape:connector-curvature="0"
         id="path4229"
         d="m 105.58923,69.410858 c 0,3.417335 0.0353,3.495002 1.59112,3.495002 1.55577,0 1.59112,-0.07767 1.59112,-3.495002 0,-3.417339 -0.0353,-3.495006 -1.59112,-3.495006 -1.55578,0 -1.59112,0.07767 -1.59112,3.495006 z"
         style="fill:#ffffff;fill-opacity:1" />
      <path
         inkscape:connector-curvature="0"
         id="path4231"
         d="m 78.858373,76.633864 c 0,0.884206 0.424302,0.932003 8.273833,0.932003 7.849538,0 8.27384,-0.0478 8.27384,-0.932003 0,-0.884206 -0.424302,-0.931998 -8.27384,-0.931998 -7.849531,0 -8.273833,0.04779 -8.273833,0.931998 z"
         style="fill:#ffffff;fill-opacity:1" />
      <path
         inkscape:connector-curvature="0"
         id="path4233"
         d="m 57.219113,87.584878 c 0,0.59127 1.520405,0.699002 9.864957,0.699002 8.344552,0 9.864961,-0.107732 9.864961,-0.699002 0,-0.59127 -1.520409,-0.699001 -9.864961,-0.699001 -8.344552,0 -9.864957,0.107731 -9.864957,0.699001 z"
         style="fill:#ffffff;fill-opacity:1" />
      <path
         inkscape:connector-curvature="0"
         id="path4235"
         d="m 37.489197,87.584878 c 0,0.590265 1.485047,0.699002 9.546733,0.699002 8.061687,0 9.546734,-0.108737 9.546734,-0.699002 0,-0.590268 -1.485047,-0.699001 -9.546734,-0.699001 -8.061686,0 -9.546733,0.108733 -9.546733,0.699001 z"
         style="fill:#ffffff;fill-opacity:1" />
      <path
         inkscape:connector-curvature="0"
         id="path4237"
         d="m 410.00745,81.876372 c 1.93384,3.030114 3.24645,4.543506 3.94071,4.543506 1.39123,0 1.28793,-0.203095 -5.37665,-10.571203 -4.37514,-6.806423 -5.92908,-8.800599 -6.9464,-8.914351 -1.17033,-0.130861 -0.94723,0.417363 2.08607,5.126002 1.86811,2.899899 4.70143,7.317119 6.29627,9.816046 z"
         style="fill:#ffffff;fill-opacity:1" />
      <path
         inkscape:connector-curvature="0"
         id="path4239"
         d="m 426.75891,107.15206 c 4.70793,7.34359 6.39873,9.55785 7.29832,9.55785 1.01905,0 0.79579,-0.58899 -1.7222,-4.5435 -1.59117,-2.49893 -4.37421,-6.90101 -6.18453,-9.78239 -2.35772,-3.752635 -3.60748,-5.239731 -4.40529,-5.242499 -0.61258,-0.0018 -1.11378,0.09904 -1.11378,0.224532 0,0.125492 2.75736,4.529197 6.12748,9.786007 z"
         style="fill:#ffffff;fill-opacity:1" />
      <path
         inkscape:connector-curvature="0"
         id="path4241"
         d="m 442.27068,146.76694 c 0,0.81865 1.73379,0.90198 4.24164,0.20385 2.40047,-0.66824 2.73663,-1.17568 2.75893,-4.16485 0.0256,-3.43476 1.02781,-4.76044 3.98598,-5.27267 3.04985,-0.5281 3.02733,-1.0563 -0.0604,-1.41782 -3.07299,-0.35979 -3.92519,-1.59307 -3.92519,-5.68045 0,-3.60451 -1.24116,-4.87108 -4.77336,-4.87108 -2.95364,0 -3.09057,1.27803 -0.15912,1.48497 l 2.06847,0.14603 0.34572,3.89679 c 0.36019,4.05981 1.2042,5.19022 3.87527,5.19022 0.61253,0 1.2907,0.2097 1.50704,0.466 0.22057,0.26131 -0.27873,0.466 -1.13669,0.466 -2.49919,0 -3.84455,1.55395 -4.15048,4.79397 -0.30948,3.27754 -0.90012,4.06004 -3.06459,4.06004 -0.92076,0 -1.51319,0.27367 -1.51319,0.699 z"
         style="fill:#ffffff;fill-opacity:1" />
      <path
         inkscape:connector-curvature="0"
         id="path4243"
         d="m 411.46338,142.75769 c -1.60561,1.29814 -4.87935,1.29836 -6.48543,4.4e-4 -0.97802,-0.79038 -1.25403,-1.8554 -1.42762,-5.50869 -0.25529,-5.37269 0.72334,-7.74074 3.40243,-8.23308 4.46908,-0.82126 6.30959,1.81872 5.94964,8.53401 -0.17935,3.34575 -0.47936,4.43144 -1.43902,5.20732 z m -5.15205,2.51348 c 3.31776,0.60325 6.62745,-0.60013 8.34708,-3.03495 2.3106,-3.27157 1.54698,-10.85203 -1.34081,-13.31017 -2.19008,-1.86424 -8.00378,-1.86424 -10.19386,0 -2.88779,2.45814 -3.65141,10.0386 -1.34081,13.31017 1.10392,1.56304 2.84285,2.72847 4.5284,3.03495 z"
         style="fill:#ffffff;fill-opacity:1" />
      <path
         inkscape:connector-curvature="0"
         id="path4245"
         d="m 369.99285,138.84493 c -3.7e-4,6.66381 0.0887,9.45472 0.19797,6.20202 0.10922,-3.25271 0.10952,-8.70491 6.3e-4,-12.11602 -0.10888,-3.4111 -0.19827,-0.7498 -0.19863,5.914 z"
         style="fill:#ffffff;fill-opacity:1" />
      <path
         inkscape:connector-curvature="0"
         id="path4247"
         d="m 367.80617,138.84493 c 0,10.25201 0.13103,11.88302 0.95467,11.88302 0.82364,0 0.95468,-1.63101 0.95468,-11.88302 0,-10.25201 -0.13104,-11.88301 -0.95468,-11.88301 -0.82364,0 -0.95467,1.631 -0.95467,11.88301 z"
         style="fill:#ffffff;fill-opacity:1" />
      <path
         inkscape:connector-curvature="0"
         id="path4249"
         d="m 326.43699,130.45692 c 0,3.41734 0.0353,3.49501 1.59112,3.49501 1.55577,0 1.59112,-0.0777 1.59112,-3.49501 0,-3.41733 -0.0353,-3.495 -1.59112,-3.495 -1.55578,0 -1.59112,0.0777 -1.59112,3.495 z"
         style="fill:#ffffff;fill-opacity:1" />
      <path
         inkscape:connector-curvature="0"
         id="path4251"
         d="m 311.40305,142.20345 c -1.42134,1.39996 -4.21067,1.88132 -6.10293,1.05318 -2.265,-0.99126 -3.23259,-8.10551 -1.58026,-11.61898 1.00759,-2.14249 3.52934,-3.20512 5.80476,-2.44602 2.36483,0.78892 3.09997,2.51884 3.15321,7.41981 0.0396,3.64751 -0.15145,4.48557 -1.27478,5.59201 z m -6.60532,2.58845 c 3.56458,1.31371 7.52677,0.41493 9.32939,-2.11628 1.41565,-1.98785 1.89415,-8.10001 0.84824,-10.8352 -1.01405,-2.65186 -3.71041,-4.4125 -6.7576,-4.4125 -5.62427,0 -7.87607,2.63431 -7.87418,9.21294 0.001,4.85854 1.13114,6.92636 4.45415,8.15104 z"
         style="fill:#ffffff;fill-opacity:1" />
      <path
         inkscape:connector-curvature="0"
         id="path4253"
         d="m 386.93999,168.60618 c 4.48391,6.98432 6.14953,9.1498 7.03774,9.1498 1.03785,0 0.93288,-0.36512 -0.97132,-3.37851 -9.98112,-15.7951 -10.25531,-16.18359 -11.42557,-16.18853 -1.43622,-0.006 -1.85419,-0.81851 5.35915,10.41724 z"
         style="fill:#ffffff;fill-opacity:1" />
      <path
         inkscape:connector-curvature="0"
         id="path4255"
         d="m 425.72302,164.70796 c 0,1.81963 0.053,1.86401 2.22756,1.86401 2.17453,0 2.22758,-0.0444 2.22758,-1.86401 0,-1.81962 -0.053,-1.864 -2.22758,-1.864 -2.17451,0 -2.22756,0.0444 -2.22756,1.864 z"
         style="fill:#ffffff;fill-opacity:1" />
      <path
         inkscape:connector-curvature="0"
         id="path4257"
         d="m 424.69719,177.87247 c -0.33422,1.08306 -0.18852,1.28151 0.94091,1.28151 1.62493,0 4.54006,-3.87984 4.54006,-6.04252 0,-1.29354 -0.18148,-1.41349 -2.13853,-1.41349 -2.10419,0 -2.14503,0.0393 -2.54275,2.4465 -0.22233,1.34558 -0.58218,3.02318 -0.79969,3.728 z"
         style="fill:#ffffff;fill-opacity:1" />
      <path
         inkscape:connector-curvature="0"
         id="path4259"
         d="m 406.62955,191.50299 c 0,3.41734 0.0353,3.495 1.59112,3.495 1.55578,0 1.59113,-0.0777 1.59113,-3.495 0,-3.41734 -0.0353,-3.495 -1.59113,-3.495 -1.55578,0 -1.59112,0.0777 -1.59112,3.495 z"
         style="fill:#ffffff;fill-opacity:1" />
      <path
         inkscape:connector-curvature="0"
         id="path4261"
         d="m 424.70353,208.62851 c -0.32815,1.0466 -0.18405,1.28028 0.78618,1.27479 1.59412,-0.009 4.68845,-4.15673 4.68845,-6.28454 0,-1.54022 -0.11877,-1.63076 -2.13918,-1.63076 -2.13385,0 -2.14016,0.007 -2.53641,2.67951 -0.21847,1.47372 -0.57804,3.25617 -0.79904,3.961 z"
         style="fill:#ffffff;fill-opacity:1" />
      <path
         inkscape:connector-curvature="0"
         id="path4263"
         d="m 450.55995,234.92221 c 1.54309,2.44551 2.81625,3.87983 3.44392,3.87983 0.54768,0 0.9958,-0.17121 0.9958,-0.38046 0,-0.20925 -2.67464,-4.56053 -5.94363,-9.66951 -4.73049,-7.3931 -6.21905,-9.31893 -7.29307,-9.43546 -1.21339,-0.13164 -0.96135,0.4521 2.49971,5.78968 2.11703,3.26485 4.95081,7.68201 6.29727,9.81592 z"
         style="fill:#ffffff;fill-opacity:1" />
      <path
         inkscape:connector-curvature="0"
         id="path4265"
         d="m 440.99779,268.73812 c 0,0.23228 0.47178,0.35449 1.0484,0.27163 0.66642,-0.0958 3.31714,-3.68402 7.27525,-9.84838 5.36164,-8.35025 6.04464,-9.67761 4.91551,-9.55302 -1.02254,0.11284 -2.62474,2.1887 -7.27524,9.42609 -3.28016,5.10476 -5.96392,9.47141 -5.96392,9.70368 z"
         style="fill:#ffffff;fill-opacity:1" />
      <path
         inkscape:connector-curvature="0"
         id="path4267"
         d="m 426.99591,282.83909 c 0,3.41734 0.0353,3.495 1.59113,3.495 1.55577,0 1.59112,-0.0777 1.59112,-3.495 0,-3.41734 -0.0353,-3.495 -1.59112,-3.495 -1.55578,0 -1.59113,0.0777 -1.59113,3.495 z"
         style="fill:#ffffff;fill-opacity:1" />
      <path
         inkscape:connector-curvature="0"
         id="path4269"
         d="m 420.7375,268.689 c -0.11668,0.22169 0.32617,0.40308 0.98411,0.40308 0.93226,0 2.52411,-2.07391 7.21308,-9.3974 3.30926,-5.16857 6.1123,-9.57228 6.22898,-9.78601 0.11668,-0.21374 -0.32683,-0.38862 -0.98559,-0.38862 -0.93387,0 -2.52298,2.06716 -7.21309,9.38294 -3.30844,5.16061 -6.11081,9.56432 -6.22749,9.78601 z"
         style="fill:#ffffff;fill-opacity:1" />
      <path
         inkscape:connector-curvature="0"
         id="path4271"
         d="m 403.31841,240.78484 c -2.9045,0.0865 -0.69849,0.15796 4.90226,0.15842 5.60075,4.6e-4 7.97717,-0.0702 5.28093,-0.15735 -2.69625,-0.087 -7.27868,-0.0875 -10.18319,-9.2e-4 z"
         style="fill:#ffffff;fill-opacity:1" />
      <path
         inkscape:connector-curvature="0"
         id="path4273"
         d="m 398.35571,239.96704 c 0,0.59127 1.52041,0.699 9.86496,0.699 8.34456,0 9.86496,-0.10773 9.86496,-0.699 0,-0.59127 -1.5204,-0.699 -9.86496,-0.699 -8.34455,0 -9.86496,0.10773 -9.86496,0.699 z"
         style="fill:#ffffff;fill-opacity:1" />
      <path
         inkscape:connector-curvature="0"
         id="path4275"
         d="m 418.72208,239.96704 c 0,0.59027 1.48504,0.699 9.54673,0.699 8.06169,0 9.54674,-0.10873 9.54674,-0.699 0,-0.59027 -1.48505,-0.699 -9.54674,-0.699 -8.06169,0 -9.54673,0.10873 -9.54673,0.699 z"
         style="fill:#ffffff;fill-opacity:1" />
      <path
         inkscape:connector-curvature="0"
         id="path4277"
         d="m 378.6258,239.96704 c 0,0.59027 1.48504,0.699 9.54673,0.699 8.06168,0 9.54674,-0.10873 9.54674,-0.699 0,-0.59027 -1.48506,-0.699 -9.54674,-0.699 -8.06169,0 -9.54673,0.10873 -9.54673,0.699 z"
         style="fill:#ffffff;fill-opacity:1" />
      <path
         inkscape:connector-curvature="0"
         id="path4279"
         d="m 391.16202,266.64557 c 1.07375,1.68505 1.93315,2.44651 2.76119,2.44651 1.051,0 0.78001,-0.65945 -2.1544,-5.24251 -1.84614,-2.88338 -4.62775,-7.28057 -6.18136,-9.77153 -1.98719,-3.18616 -3.15498,-4.53331 -3.93852,-4.54351 -0.61258,-0.008 -1.11378,0.0878 -1.11378,0.21278 0,0.125 2.04027,3.42778 4.53395,7.33951 2.49368,3.91174 5.2355,8.21318 6.09292,9.55875 z"
         style="fill:#ffffff;fill-opacity:1" />
      <path
         inkscape:connector-curvature="0"
         id="path4281"
         d="m 404.72021,264.66507 0,2.097 2.54579,0 2.5458,0 0,-2.097 0,-2.097 -2.5458,0 -2.54579,0 0,2.097 z"
         style="fill:#ffffff;fill-opacity:1" />
      <path
         inkscape:connector-curvature="0"
         id="path4283"
         d="m 383.24005,301.83173 c -2.71286,0.0874 -0.49324,0.15882 4.93248,0.15882 5.42573,0 7.64535,-0.0715 4.93248,-0.15882 -2.71286,-0.0874 -7.1521,-0.0874 -9.86496,0 z"
         style="fill:#ffffff;fill-opacity:1" />
      <path
         inkscape:connector-curvature="0"
         id="path4285"
         d="m 378.6258,301.01311 c 0,0.59027 1.48504,0.699 9.54673,0.699 8.06168,0 9.54674,-0.10873 9.54674,-0.699 0,-0.59027 -1.48506,-0.699 -9.54674,-0.699 -8.06169,0 -9.54673,0.10873 -9.54673,0.699 z"
         style="fill:#ffffff;fill-opacity:1" />
      <path
         inkscape:connector-curvature="0"
         id="path4287"
         d="m 403.31841,301.8309 c -2.9045,0.0865 -0.69849,0.15797 4.90226,0.15843 5.60075,4.6e-4 7.97717,-0.0702 5.28093,-0.15735 -2.69625,-0.087 -7.27868,-0.0875 -10.18319,-9.3e-4 z"
         style="fill:#ffffff;fill-opacity:1" />
      <path
         inkscape:connector-curvature="0"
         id="path4289"
         d="m 398.35571,301.01311 c 0,0.59127 1.52041,0.699 9.86496,0.699 8.34456,0 9.86496,-0.10773 9.86496,-0.699 0,-0.59127 -1.5204,-0.699 -9.86496,-0.699 -8.34455,0 -9.86496,0.10773 -9.86496,0.699 z"
         style="fill:#ffffff;fill-opacity:1" />
      <path
         inkscape:connector-curvature="0"
         id="path4291"
         d="m 358.25943,301.01311 c 0,0.59127 1.52041,0.699 9.86496,0.699 8.34456,0 9.86496,-0.10773 9.86496,-0.699 0,-0.59127 -1.5204,-0.699 -9.86496,-0.699 -8.34455,0 -9.86496,0.10773 -9.86496,0.699 z"
         style="fill:#ffffff;fill-opacity:1" />
      <path
         inkscape:connector-curvature="0"
         id="path4293"
         d="m 338.52952,301.01311 c 0,0.59027 1.48504,0.699 9.54673,0.699 8.06168,0 9.54674,-0.10873 9.54674,-0.699 0,-0.59027 -1.48506,-0.699 -9.54674,-0.699 -8.06169,0 -9.54673,0.10873 -9.54673,0.699 z"
         style="fill:#ffffff;fill-opacity:1" />
      <path
         inkscape:connector-curvature="0"
         id="path4295"
         d="m 320.0725,290.0621 c 0,0.8842 0.4243,0.932 8.27384,0.932 7.84953,0 8.27383,-0.0478 8.27383,-0.932 0,-0.88421 -0.4243,-0.932 -8.27383,-0.932 -7.84954,0 -8.27384,0.0478 -8.27384,0.932 z"
         style="fill:#ffffff;fill-opacity:1" />
      <path
         inkscape:connector-curvature="0"
         id="path4297"
         d="m 306.70707,282.83909 c 0,3.41734 0.0353,3.495 1.59112,3.495 1.55579,0 1.59113,-0.0777 1.59113,-3.495 0,-3.41734 -0.0353,-3.495 -1.59113,-3.495 -1.55577,0 -1.59112,0.0777 -1.59112,3.495 z"
         style="fill:#ffffff;fill-opacity:1" />
      <path
         inkscape:connector-curvature="0"
         id="path4299"
         d="m 278.06688,270.49007 c 0,0.89058 0.42429,0.93201 9.54673,0.93201 9.12243,0 9.54673,-0.0414 9.54673,-0.93201 0,-0.89057 -0.4243,-0.93199 -9.54673,-0.93199 -9.12244,0 -9.54673,0.0414 -9.54673,0.93199 z"
         style="fill:#ffffff;fill-opacity:1" />
      <path
         inkscape:connector-curvature="0"
         id="path4301"
         d="m 284.04833,239.38454 c -0.32783,1.04558 -0.1831,1.28132 0.78618,1.2804 1.52458,-0.001 4.68844,-4.32957 4.68844,-6.41379 0,-1.39989 -0.15219,-1.50711 -2.13917,-1.50711 -2.13386,0 -2.14016,0.007 -2.53641,2.6795 -0.21848,1.47372 -0.57805,3.25618 -0.79904,3.961 z"
         style="fill:#ffffff;fill-opacity:1" />
      <path
         inkscape:connector-curvature="0"
         id="path4303"
         d="m 305.55735,249.97764 c 2.79176,2.46172 4.3615,2.47621 1.98656,0.0184 -0.98533,-1.01972 -2.30889,-1.85851 -2.94123,-1.864 -0.94534,-0.008 -0.77563,0.31992 0.95467,1.84565 z"
         style="fill:#ffffff;fill-opacity:1" />
      <path
         inkscape:connector-curvature="0"
         id="path4305"
         d="m 259.60985,259.53907 c 0,0.58548 1.34362,0.699 8.27384,0.699 6.93023,0 8.27384,-0.11352 8.27384,-0.699 0,-0.58549 -1.34361,-0.69901 -8.27384,-0.69901 -6.93022,0 -8.27384,0.11352 -8.27384,0.69901 z"
         style="fill:#ffffff;fill-opacity:1" />
      <path
         inkscape:connector-curvature="0"
         id="path4307"
         d="m 246.24443,252.54906 c 0,3.41734 0.0353,3.495 1.59112,3.495 1.55578,0 1.59112,-0.0777 1.59112,-3.495 0,-3.41734 -0.0353,-3.49501 -1.59112,-3.49501 -1.55577,0 -1.59112,0.0777 -1.59112,3.49501 z"
         style="fill:#ffffff;fill-opacity:1" />
      <path
         inkscape:connector-curvature="0"
         id="path4309"
         d="m 226.51451,252.54906 c 0,3.18433 0.11315,3.495 1.2729,3.495 1.15975,0 1.2729,-0.31067 1.2729,-3.495 0,-3.18434 -0.11315,-3.49501 -1.2729,-3.49501 -1.15975,0 -1.2729,0.31067 -1.2729,3.49501 z"
         style="fill:#ffffff;fill-opacity:1" />
      <path
         inkscape:connector-curvature="0"
         id="path4311"
         d="m 197.87432,239.96704 c 0,0.59027 1.48504,0.699 9.54673,0.699 8.06168,0 9.54673,-0.10873 9.54673,-0.699 0,-0.59027 -1.48505,-0.699 -9.54673,-0.699 -8.06169,0 -9.54673,0.10873 -9.54673,0.699 z"
         style="fill:#ffffff;fill-opacity:1" />
      <path
         inkscape:connector-curvature="0"
         id="path4313"
         d="m 186.82674,258.95656 c 0.21697,0.96113 0.74769,1.74751 1.17938,1.74751 0.95725,0 1.59436,-3.09854 1.59436,-7.75406 0,-3.34795 -0.0381,-3.42996 -1.59112,-3.42996 -1.56919,0 -1.59105,0.053 -1.58412,3.84451 0.004,2.11447 0.18452,4.63088 0.4015,5.592 z"
         style="fill:#ffffff;fill-opacity:1" />
      <path
         inkscape:connector-curvature="0"
         id="path4315"
         d="m 186.41823,265.59707 c 0,0.932 0.31823,1.165 1.59113,1.165 1.2729,0 1.59112,-0.233 1.59112,-1.165 0,-0.932 -0.31822,-1.165 -1.59112,-1.165 -1.2729,0 -1.59113,0.233 -1.59113,1.165 z"
         style="fill:#ffffff;fill-opacity:1" />
      <path
         inkscape:connector-curvature="0"
         id="path4317"
         d="m 265.9087,290.20812 c -5.41183,8.4136 -6.06257,9.67968 -4.91007,9.55301 1.04344,-0.11468 2.53632,-2.03512 6.95593,-8.94806 6.69069,-10.46516 6.7982,-10.67735 5.30466,-10.46332 -0.74808,0.10721 -3.15304,3.33269 -7.35052,9.85837 z"
         style="fill:#ffffff;fill-opacity:1" />
    </g>
  </g>
</svg>
